<svg width="26" height="26" viewBox="0 0 26 26" fill="none" xmlns="http://www.w3.org/2000/svg">
<g clip-path="url(#clip0_1_57)">
<path d="M13 0C20.1801 0 26 5.82075 26 13C26 20.1801 20.1801 26 13 26C5.81985 26 0 20.1801 0 13C0 5.82075 5.81994 0 13 0Z" fill="#3B5998"/>
<path d="M14.5828 8.94964H16.2582V6.47476H14.2887V6.48369C11.9024 6.56821 11.4133 7.90962 11.3702 9.31851H11.3653V10.5543H9.7403V12.978H11.3653V19.4747H13.8142V12.978H15.8202L16.2077 10.5543H13.815V9.80769C13.815 9.33154 14.1318 8.94964 14.5828 8.94964Z" fill="white"/>
</g>
<defs>
<clipPath id="clip0_1_57">
<rect width="26" height="26" fill="white"/>
</clipPath>
</defs>
</svg>
